<?xml version="1.0" encoding="UTF-8" standalone="no"?><!DOCTYPE svg PUBLIC "-//W3C//DTD SVG 1.1//EN" "http://www.w3.org/Graphics/SVG/1.1/DTD/svg11.dtd"><svg width="100%" height="100%" viewBox="0 0 800 600" version="1.1" xmlns="http://www.w3.org/2000/svg" xmlns:xlink="http://www.w3.org/1999/xlink" xml:space="preserve" xmlns:serif="http://www.serif.com/" style="fill-rule:evenodd;clip-rule:evenodd;stroke-linejoin:round;stroke-miterlimit:2;"><g><path d="M163.824,233.281c-5.222,0 -9.45,3.283 -9.45,7.334l0,36.682c0,4.055 4.228,7.338 9.45,7.338c5.216,-0 9.443,-3.283 9.443,-7.338l0,-36.682c0,-4.051 -4.227,-7.334 -9.443,-7.334Z" style="fill-rule:nonzero;"/><path d="M211.091,203.241c-5.217,-0 -9.449,3.287 -9.449,7.338l-0,101.574c-0,4.055 4.232,7.338 9.449,7.338c5.216,-0 9.449,-3.283 9.449,-7.338l-0,-101.574c-0,-4.051 -4.233,-7.338 -9.449,-7.338Z" style="fill-rule:nonzero;"/><path d="M258.293,152.58c-5.216,-0 -9.449,3.282 -9.449,7.334l-0,205.422c-0,4.052 4.233,7.339 9.449,7.339c5.217,-0 9.449,-3.287 9.449,-7.339l0,-205.422c0,-4.052 -4.232,-7.334 -9.449,-7.334Z" style="fill-rule:nonzero;"/><path d="M305.528,189.261c-5.217,0 -9.449,3.283 -9.449,7.338l-0,124.718c-0,4.051 4.232,7.338 9.449,7.338c5.216,-0 9.449,-3.287 9.449,-7.338l-0,-124.718c-0,-4.055 -4.233,-7.338 -9.449,-7.338Z" style="fill-rule:nonzero;"/><path d="M448.156,171.5c-5.216,-0 -9.443,3.283 -9.443,7.338l-0,165.059c-0,4.052 4.227,7.334 9.443,7.334c5.217,0 9.45,-3.282 9.45,-7.334l-0,-165.059c-0,-4.055 -4.233,-7.338 -9.45,-7.338Z" style="fill-rule:nonzero;"/><path d="M541.707,181.923c-5.217,0 -9.449,3.287 -9.449,7.338l-0,146.728c-0,4.055 4.232,7.338 9.449,7.338c5.216,-0 9.444,-3.283 9.444,-7.338l-0,-146.728c-0,-4.051 -4.228,-7.338 -9.444,-7.338Z" style="fill-rule:nonzero;"/><path d="M588.942,218.605c-5.217,0 -9.449,3.287 -9.449,7.338l-0,73.364c-0,4.051 4.232,7.338 9.449,7.338c5.216,-0 9.443,-3.287 9.443,-7.338l0,-73.364c0,-4.051 -4.227,-7.338 -9.443,-7.338Z" style="fill-rule:nonzero;"/><path d="M494.472,123.232c-5.222,-0 -9.449,3.287 -9.449,7.338l0,264.11c0,4.055 4.227,7.338 9.449,7.338c5.217,0 9.444,-3.283 9.444,-7.338l-0,-264.11c-0,-4.051 -4.227,-7.338 -9.444,-7.338Z" style="fill-rule:nonzero;"/><path d="M352.763,240.615c-5.217,0 -9.444,3.287 -9.444,7.338l-0,29.344c-0,4.055 4.227,7.338 9.444,7.338c5.216,-0 9.449,-3.283 9.449,-7.338l-0,-29.344c-0,-4.051 -4.233,-7.338 -9.449,-7.338Z" style="fill-rule:nonzero;"/><path d="M636.176,238.159c-5.216,0 -9.449,3.283 -9.449,7.334l0,31.745c0,4.051 4.233,7.338 9.449,7.338c5.217,0 9.45,-3.287 9.45,-7.338l-0,-31.745c-0,-4.051 -4.233,-7.334 -9.45,-7.334Z" style="fill-rule:nonzero;"/><path d="M399.111,224.172c-5.222,-0 -9.449,3.282 -9.449,7.334l-0,59.72c-0,4.051 4.227,7.338 9.449,7.338c5.216,-0 9.443,-3.287 9.443,-7.338l0,-59.72c0,-4.052 -4.227,-7.334 -9.443,-7.334Z" style="fill-rule:nonzero;"/></g><g><path d="M314.306,468.579l-0,8.031c-7.345,6.74 -13.107,10.109 -17.286,10.109c-1.963,0 -3.277,-0.736 -3.942,-2.209c-0.664,-1.472 -0.997,-3.211 -0.997,-5.215l0,-1.598c-3.039,3.355 -5.556,5.698 -7.55,7.028c-1.995,1.329 -3.942,1.994 -5.841,1.994c-2.85,0 -5.335,-1.345 -7.456,-4.036c-2.121,-2.691 -3.182,-5.873 -3.182,-9.545c0,-6.839 2.153,-12.759 6.459,-17.761c3.989,-4.622 8.326,-6.933 13.011,-6.933c1.9,-0 3.625,0.475 5.177,1.425c1.551,0.949 3.023,2.469 4.416,4.558l1.614,-5.983l7.883,-0l-4.938,20.04c-0.443,1.569 -0.823,3.248 -1.14,5.036c-0.317,1.788 -0.475,3.027 -0.475,3.718c0,1.192 0.38,1.788 1.14,1.788c1.013,0 2.675,-0.925 4.986,-2.776c2.311,-1.851 5.018,-4.408 8.121,-7.671Zm-20.667,1.148l2.148,-9.506c-2.153,-2.533 -3.578,-4.084 -4.274,-4.654c-1.013,-0.823 -2.09,-1.235 -3.229,-1.235c-3.041,0 -5.78,1.726 -8.217,5.177c-2.438,3.45 -3.657,7.329 -3.657,11.634c0,2.723 0.444,4.923 1.333,6.601c0.888,1.678 2.062,2.517 3.521,2.517c1.905,-0 4.19,-1.392 6.855,-4.176c1.84,-2.088 3.68,-4.207 5.52,-6.358Z" style="fill-rule:nonzero;"/><path d="M396.935,468.579l-0,8.073c-4.876,3.736 -9.086,6.379 -12.632,7.93c-3.546,1.552 -7.028,2.327 -10.447,2.327c-3.42,0 -5.921,-1.393 -7.504,-4.179c-1.329,-2.279 -1.994,-5.318 -1.994,-9.117c-0,-6.585 1.646,-15.102 4.939,-25.549c3.545,-11.207 7.344,-19.027 11.397,-23.459c2.279,-2.216 4.559,-3.324 6.838,-3.324c1.836,-0 3.388,0.807 4.654,2.422c1.266,1.614 1.899,3.625 1.899,6.031c0,3.609 -1.044,7.629 -3.134,12.062c-1.773,3.799 -4.432,8.136 -7.978,13.011c-2.532,3.546 -5.952,7.883 -10.257,13.012l-0.475,5.794c-0,4.558 1.488,6.838 4.464,6.838c2.533,-0 5.73,-1.108 9.592,-3.324c3.863,-2.216 7.409,-5.066 10.638,-8.548Zm-22.89,-10.068c3.546,-5.002 5.984,-8.547 7.314,-10.637c2.279,-3.546 4.004,-6.664 5.176,-9.355c1.171,-2.691 1.757,-5.176 1.757,-7.456c-0,-2.152 -0.57,-3.229 -1.71,-3.229c-2.089,0 -4.685,4.559 -7.788,13.677c-2.216,6.585 -3.799,12.252 -4.749,17Z" style="fill-rule:nonzero;"/><path d="M446.215,469.364l-1.414,7.301c-2.217,1.709 -6.39,2.551 -9.429,2.551c-1.773,0 -3.372,-0.348 -4.797,-1.045c-1.424,-0.696 -2.928,-1.867 -4.511,-3.514c-4.559,8.168 -10.416,12.252 -17.571,12.252c-3.799,0 -6.775,-1.203 -8.927,-3.609c-2.153,-2.406 -3.23,-5.793 -3.23,-10.162c0,-7.029 2.074,-12.87 6.221,-17.523c4.148,-4.654 12.255,-8.552 21.025,-7.155l-2.873,5.841c-4.749,0.696 -10.379,2.358 -12.596,5.493c-2.216,3.134 -3.324,7.234 -3.324,12.299c0,5.762 1.868,8.643 5.604,8.643c2.343,-0 4.606,-1.282 6.791,-3.847c2.184,-2.564 3.593,-5.587 4.226,-9.07c-0.38,-1.33 -0.617,-2.311 -0.712,-2.944c-0.095,-0.633 -0.338,-1.788 -0.426,-2.543c-0.193,-1.654 -0.273,-3.139 -0.324,-5.189c-0.055,-2.256 -0.3,-4.445 0.927,-6.637c1.036,-1.851 2.767,-2.581 5.945,-1.905c2.705,0.576 2.885,5.652 2.948,6.634c0.063,0.981 0.095,1.757 0.095,2.327c-0,3.482 -0.57,7.06 -1.71,10.732c3.04,3.102 5.174,4.732 8.212,4.756c3.617,0.028 7.317,-0.774 9.85,-3.686Z" style="fill-rule:nonzero;"/><path d="M530.171,466.733l1.777,7.268c-2.216,1.709 -7.933,5.081 -12.192,4.229c-1.555,-0.311 -4.33,-0.805 -5.913,-2.451c-4.559,8.167 -10.416,12.251 -17.571,12.251c-3.799,0 -6.774,-1.203 -8.927,-3.609c-2.153,-2.406 -3.229,-5.793 -3.229,-10.162c-0,-7.028 2.073,-12.869 6.22,-17.523c4.148,-4.654 12.255,-8.552 21.025,-7.155l-2.873,5.841c-4.749,0.697 -10.379,2.359 -12.595,5.493c-2.217,3.134 -3.325,7.234 -3.325,12.299c0,5.762 1.868,8.643 5.604,8.643c2.343,0 4.606,-1.282 6.791,-3.847c2.184,-2.564 3.593,-5.587 4.226,-9.07c-0.38,-1.329 -0.617,-2.311 -0.712,-2.944c-0.095,-0.633 -0.338,-1.788 -0.426,-2.543c-0.193,-1.653 -0.273,-3.138 -0.324,-5.188c-0.055,-2.256 -0.3,-4.446 0.927,-6.638c1.036,-1.851 2.767,-2.581 5.945,-1.905c2.705,0.576 2.885,5.653 2.948,6.634c0.063,0.981 0.095,1.757 0.095,2.327c0,3.482 -0.57,7.06 -1.709,10.732c3.039,3.103 11.705,0.231 14.238,-2.682Z" style="fill-rule:nonzero;"/><path d="M463.748,484.398l1.425,-6.838l-1.425,1.52c-2.722,2.786 -5.017,4.749 -6.885,5.888c-1.868,1.14 -3.689,1.71 -5.461,1.71c-3.04,-0 -5.541,-1.298 -7.504,-3.894c-1.962,-2.596 -2.944,-5.889 -2.944,-9.878c0,-6.331 1.997,-11.998 5.99,-17c3.993,-5.002 8.556,-7.503 13.691,-7.503c1.711,-0 3.152,0.38 4.325,1.141c1.173,0.761 2.837,2.377 4.992,4.848l1.329,-5.984l7.759,-0.005l-6.364,30.867c0.887,-0.633 2.09,-1.678 3.609,-3.134c4.749,-4.433 7.535,-7.029 8.358,-7.789l0,8.073c-4.559,3.673 -9.086,7.314 -13.581,10.923c-1.14,6.458 -2.612,11.017 -4.417,13.676c-1.804,2.66 -4.416,3.989 -7.835,3.989c-2.596,0 -4.797,-0.775 -6.601,-2.327c-1.805,-1.551 -2.707,-3.276 -2.707,-5.176c0,-1.836 0.855,-3.641 2.564,-5.414c0.95,-1.013 3.958,-3.07 9.023,-6.173l2.659,-1.52Zm-1.519,7.124c-1.71,0.949 -3.15,1.915 -4.322,2.896c-1.171,0.982 -1.757,1.884 -1.757,2.707c0,0.823 0.19,1.488 0.57,1.995c0.38,0.506 0.982,0.76 1.805,0.76c0.57,-0 1.155,-0.618 1.757,-1.853c0.601,-1.234 1.25,-3.403 1.947,-6.505Zm4.942,-23.175l1.699,-7.77c-1.399,-1.841 -2.417,-3.079 -3.053,-3.714c-1.59,-1.715 -3.148,-2.572 -4.674,-2.572c-2.545,0 -4.994,1.298 -7.346,3.894c-2.99,3.293 -4.485,7.693 -4.485,13.202c0,2.596 0.443,4.717 1.33,6.363c0.886,1.646 2.058,2.469 3.515,2.469c1.393,0 3.198,-0.981 5.414,-2.944c1.71,-1.456 3.356,-3.197 4.94,-5.223l1.615,-1.995c0.316,-0.317 0.633,-0.791 0.95,-1.425c-0,-0.063 0.031,-0.158 0.095,-0.285Z" style="fill-rule:nonzero;"/></g></svg>