<?xml version="1.0" encoding="UTF-8" standalone="no"?><!DOCTYPE svg PUBLIC "-//W3C//DTD SVG 1.1//EN" "http://www.w3.org/Graphics/SVG/1.1/DTD/svg11.dtd"><svg width="100%" height="100%" viewBox="0 0 800 600" version="1.1" xmlns="http://www.w3.org/2000/svg" xmlns:xlink="http://www.w3.org/1999/xlink" xml:space="preserve" xmlns:serif="http://www.serif.com/" style="fill-rule:evenodd;clip-rule:evenodd;stroke-linecap:round;stroke-linejoin:round;"><g><path d="M284.822,193.913l-116.696,116.696" style="fill:none;fill-rule:nonzero;stroke:#000;stroke-width:21.22px;"/><path d="M284.822,193.913l-74.261,212.174l-42.435,-95.478l-95.479,-42.435l212.175,-74.261Z" style="fill:none;fill-rule:nonzero;stroke:#000;stroke-width:21.22px;"/><path d="M210.658,404.556l67.641,-196.666l-110.044,103.077l42.403,93.589Z"/><path d="M386.827,278.835c6.359,-0 11.243,1.622 14.652,4.867c3.409,3.245 5.113,8.014 5.113,14.307l-0,32.549l-4.72,-0l0,-9.145c-1.639,3.015 -4.032,5.359 -7.178,7.03c-3.147,1.672 -6.916,2.508 -11.308,2.508c-5.704,-0 -10.211,-1.344 -13.521,-4.032c-3.311,-2.688 -4.966,-6.227 -4.966,-10.62c-0,-4.261 1.524,-7.719 4.572,-10.374c3.049,-2.655 7.916,-3.982 14.603,-3.982l17.601,-0l0,-4.13c0,-4.786 -1.294,-8.424 -3.884,-10.915c-2.589,-2.491 -6.375,-3.737 -11.357,-3.737c-3.409,0 -6.67,0.59 -9.784,1.77c-3.114,1.18 -5.753,2.754 -7.916,4.72l-2.458,-3.54c2.556,-2.294 5.637,-4.081 9.243,-5.359c3.605,-1.278 7.375,-1.917 11.308,-1.917Zm-2.753,48.084c4.261,0 7.883,-0.983 10.866,-2.95c2.982,-1.966 5.228,-4.818 6.735,-8.555l0,-9.636l-17.503,-0c-5.048,-0 -8.702,0.918 -10.964,2.753c-2.262,1.836 -3.392,4.359 -3.392,7.572c-0,3.343 1.245,5.982 3.736,7.915c2.491,1.934 5.999,2.901 10.522,2.901Z" style="fill-rule:nonzero;"/><rect x="452.12" y="257.595" width="4.917" height="72.963" style="fill-rule:nonzero;"/><path d="M523.116,330.951c-4.851,-0 -9.227,-1.115 -13.127,-3.343c-3.901,-2.229 -6.966,-5.327 -9.194,-9.293c-2.229,-3.966 -3.344,-8.44 -3.344,-13.422c0,-4.982 1.115,-9.457 3.344,-13.423c2.228,-3.966 5.293,-7.063 9.194,-9.292c3.9,-2.229 8.276,-3.343 13.127,-3.343c4.851,-0 9.227,1.114 13.127,3.343c3.901,2.229 6.966,5.326 9.195,9.292c2.228,3.966 3.343,8.441 3.343,13.423c-0,4.982 -1.115,9.456 -3.343,13.422c-2.229,3.966 -5.294,7.064 -9.195,9.293c-3.9,2.228 -8.276,3.343 -13.127,3.343Zm0,-4.425c3.933,-0 7.457,-0.918 10.571,-2.753c3.114,-1.836 5.572,-4.393 7.375,-7.67c1.803,-3.278 2.704,-7.015 2.704,-11.21c-0,-4.196 -0.901,-7.932 -2.704,-11.21c-1.803,-3.278 -4.261,-5.835 -7.375,-7.67c-3.114,-1.836 -6.638,-2.753 -10.571,-2.753c-3.933,-0 -7.457,0.917 -10.571,2.753c-3.114,1.835 -5.572,4.392 -7.375,7.67c-1.802,3.278 -2.704,7.014 -2.704,11.21c0,4.195 0.902,7.932 2.704,11.21c1.803,3.277 4.261,5.834 7.375,7.67c3.114,1.835 6.638,2.753 10.571,2.753Z" style="fill-rule:nonzero;"/><path d="M635.51,279.228l0,45.823c0,8.522 -2.065,14.815 -6.195,18.88c-4.13,4.064 -10.357,6.096 -18.683,6.096c-4.72,0 -9.178,-0.721 -13.373,-2.163c-4.196,-1.442 -7.572,-3.442 -10.128,-5.998l2.655,-3.737c2.556,2.36 5.637,4.196 9.243,5.507c3.605,1.311 7.44,1.966 11.505,1.966c6.817,0 11.865,-1.622 15.143,-4.867c3.278,-3.245 4.917,-8.276 4.917,-15.094l-0,-8.653c-2.098,3.736 -5.015,6.621 -8.752,8.653c-3.737,2.032 -7.932,3.048 -12.587,3.048c-4.785,0 -9.128,-1.065 -13.029,-3.196c-3.9,-2.13 -6.965,-5.096 -9.194,-8.899c-2.229,-3.802 -3.343,-8.096 -3.343,-12.881c-0,-4.786 1.114,-9.08 3.343,-12.882c2.229,-3.802 5.294,-6.752 9.194,-8.85c3.901,-2.097 8.244,-3.146 13.029,-3.146c4.72,-0 8.981,1.049 12.784,3.146c3.802,2.098 6.719,5.048 8.751,8.85l0,-11.603l4.72,-0Zm-25.861,45.036c3.999,0 7.604,-0.868 10.816,-2.606c3.212,-1.737 5.72,-4.162 7.523,-7.276c1.802,-3.114 2.704,-6.67 2.704,-10.669c-0,-3.999 -0.902,-7.539 -2.704,-10.62c-1.803,-3.081 -4.311,-5.49 -7.523,-7.228c-3.212,-1.737 -6.817,-2.605 -10.816,-2.605c-3.999,-0 -7.588,0.868 -10.768,2.605c-3.179,1.738 -5.67,4.147 -7.473,7.228c-1.803,3.081 -2.704,6.621 -2.704,10.62c-0,3.999 0.901,7.555 2.704,10.669c1.803,3.114 4.294,5.539 7.473,7.276c3.18,1.738 6.769,2.606 10.768,2.606Z" style="fill-rule:nonzero;"/><path d="M701.688,330.951c-4.851,-0 -9.227,-1.115 -13.127,-3.343c-3.901,-2.229 -6.966,-5.327 -9.195,-9.293c-2.228,-3.966 -3.343,-8.44 -3.343,-13.422c0,-4.982 1.115,-9.457 3.343,-13.423c2.229,-3.966 5.294,-7.063 9.195,-9.292c3.9,-2.229 8.276,-3.343 13.127,-3.343c4.851,-0 9.227,1.114 13.127,3.343c3.901,2.229 6.966,5.326 9.194,9.292c2.229,3.966 3.344,8.441 3.344,13.423c-0,4.982 -1.115,9.456 -3.344,13.422c-2.228,3.966 -5.293,7.064 -9.194,9.293c-3.9,2.228 -8.276,3.343 -13.127,3.343Zm-0,-4.425c3.933,-0 7.457,-0.918 10.571,-2.753c3.114,-1.836 5.572,-4.393 7.375,-7.67c1.802,-3.278 2.704,-7.015 2.704,-11.21c-0,-4.196 -0.902,-7.932 -2.704,-11.21c-1.803,-3.278 -4.261,-5.835 -7.375,-7.67c-3.114,-1.836 -6.638,-2.753 -10.571,-2.753c-3.933,-0 -7.457,0.917 -10.571,2.753c-3.114,1.835 -5.572,4.392 -7.375,7.67c-1.802,3.278 -2.704,7.014 -2.704,11.21c0,4.195 0.902,7.932 2.704,11.21c1.803,3.277 4.261,5.834 7.375,7.67c3.114,1.835 6.638,2.753 10.571,2.753Z" style="fill-rule:nonzero;"/></g></svg>